#!OML:ASF G:\JayActor3\Patient Classification 1\Patient 1\Session 5\male.ASF
:FULLY-SPECIFIED
:DEGREES
612
root 2.34558 17.3258 -6.36405 692.119 -84.7441 -690.174
lowerback 1.29196 -1.53454 -3.02222
upperback 0.400376 -2.10237 -1.2535
thorax -0.252295 -1.05676 0.438302
lowerneck -6.05348 -0.529618 1.07963
upperneck 6.08641 -0.952245 1.78606
head 3.00891 -0.38824 0.347033
rclavicle -1.2275e-014 3.97569e-016
rhumerus -33.9276 -12.6888 -82.2656
rradius 21.1882
rwrist 8.91982
rhand -19.543 -6.98035
rfingers 7.12502
rthumb 6.78101 -36.8518
lclavicle -1.2275e-014 3.97569e-016
lhumerus -28.7372 3.62951 83.9417
lradius 30.8187
lwrist 18.2813
lhand -18.1023 25.7878
lfingers 7.12502
lthumb 8.17164 55.6098
rfemur -35.7588 1.45494 20.6793
rtibia 32.2744
rfoot 4.26402 -20.0267
rtoes 2.02107
lfemur 25.0943 10.7174 -21.8832
ltibia 1.90833e-014
lfoot 11.4047 -1.8615
ltoes -34.3993
613
root 2.13957 17.3182 -6.37842 693.795 -84.6011 -691.951
lowerback 1.13816 -1.57267 -2.98566
upperback 0.377162 -2.14594 -1.21072
thorax -0.188319 -1.07876 0.457796
lowerneck -6.04354 -0.549511 1.0088
upperneck 6.22309 -0.980032 1.83803
head 3.05471 -0.400888 0.375139
rclavicle 1.70831e-014 5.36719e-015
rhumerus -34.2414 -12.8237 -82.111
rradius 21.1439
rwrist 8.97794
rhand -19.4985 -6.98474
rfingers 7.12502
rthumb 6.82399 -36.8548
lclavicle 1.70831e-014 5.36719e-015
lhumerus -29.1426 3.80048 83.9249
lradius 30.4769
lwrist 18.0913
lhand -17.9496 26.3883
lfingers 7.12502
lthumb 8.31901 56.2045
rfemur -35.1239 1.53846 20.9721
rtibia 32.78
rfoot 4.39604 -19.0968
rtoes 1.75906
lfemur 25.7195 10.3789 -21.5362
ltibia 4.13472e-014
lfoot 12.7334 -1.54448
ltoes -34.0277
614
root 1.92859 17.3113 -6.39192 695.176 -84.4273 -693.443
lowerback 0.954554 -1.61481 -2.95717
upperback 0.347226 -2.19429 -1.18276
thorax -0.114658 -1.10327 0.465668
lowerneck -6.01216 -0.572879 0.95348
upperneck 6.38174 -1.01201 1.86006
head 3.10375 -0.416363 0.390748
rclavicle 2.66868e-014 1.09332e-014
rhumerus -34.5874 -12.9258 -81.9734
rradius 21.115
rwrist 8.97621
rhand -19.4499 -6.97482
rfingers 7.12502
rthumb 6.87089 -36.8433
lclavicle 2.66868e-014 1.09332e-014
lhumerus -29.589 3.99285 83.8794
lradius 30.1437
lwrist 17.8958
lhand -17.795 26.9603
lfingers 7.12502
lthumb 8.4682 56.7706
rfemur -34.4328 1.67733 21.196
rtibia 33.3133
rfoot 4.05885 -18.1479
rtoes 1.48197
lfemur 26.3398 10.0227 -21.2207
ltibia 2.54444e-014
lfoot 14.1965 -1.16077
ltoes -33.4716
615
root 1.71398 17.3053 -6.40431 696.431 -84.221 -694.823
lowerback 0.753226 -1.66554 -2.92048
upperback 0.31603 -2.25365 -1.16522
thorax -0.032773 -1.13341 0.457566
lowerneck -6.00104 -0.592022 0.878072
upperneck 6.59685 -1.03914 1.89012
head 3.17641 -0.429178 0.412759
rclavicle -1.3828e-014 -6.55989e-015
rhumerus -34.951 -13.0066 -81.8496
rradius 21.1007
rwrist 8.92799
rhand -19.3901 -6.95798
rfingers 7.12502
rthumb 6.92855 -36.8246
lclavicle -1.3828e-014 -6.55989e-015
lhumerus -30.0705 4.21311 83.8039
lradius 29.8287
lwrist 17.706
lhand -17.653 27.4896
lfingers 7.12502
lthumb 8.60524 57.2943
rfemur -33.6864 1.83944 21.371
rtibia 33.8586
rfoot 3.31786 -17.2938
rtoes 1.15159
lfemur 26.9561 9.64081 -20.9266
ltibia -3.18055e-015
lfoot 15.7888 -0.699253
ltoes -32.7407
616
root 1.4973 17.3001 -6.4153 697.671 -83.9974 -696.208
lowerback 0.549695 -1.72049 -2.85306
upperback 0.287597 -2.31861 -1.15477
thorax 0.051784 -1.16635 0.424633
lowerneck -6.00175 -0.611441 0.802738
upperneck 6.84648 -1.06682 1.90626
head 3.2634 -0.442602 0.43028
rclavicle -1.22315e-014 -1.45113e-014
rhumerus -35.313 -13.0766 -81.7372
rradius 21.0899
rwrist 8.84234
rhand -19.327 -6.93243
rfingers 7.12502
rthumb 6.98952 -36.797
lclavicle -1.22315e-014 -1.45113e-014
lhumerus -30.5716 4.46643 83.6977
lradius 29.5269
lwrist 17.5275
lhand -17.5351 27.9301
lfingers 7.12502
lthumb 8.71898 57.73
rfemur -32.8882 1.99055 21.5239
rtibia 34.3945
rfoot 2.33329 -16.5558
rtoes 0.933908
lfemur 27.5717 9.24351 -20.6408
ltibia 6.36111e-015
lfoot 17.4973 -0.187791
ltoes -31.9289
617
root 1.28052 17.296 -6.42466 699.082 -83.7722 -697.786
lowerback 0.358971 -1.77964 -2.73024
upperback 0.265606 -2.38955 -1.14125
thorax 0.133666 -1.20213 0.363937
lowerneck -6.01006 -0.629924 0.740441
upperneck 7.10985 -1.09237 1.8907
head 3.35658 -0.455866 0.435299
rclavicle 3.75703e-014 7.55382e-015
rhumerus -35.6512 -13.1364 -81.6341
rradius 21.0757
rwrist 8.73915
rhand -19.2592 -6.9129
rfingers 7.12502
rthumb 7.05493 -36.7753
lclavicle 3.75703e-014 7.55382e-015
lhumerus -31.0722 4.80294 83.549
lradius 29.2218
lwrist 17.3246
lhand -17.4289 28.2613
lfingers 7.12502
lthumb 8.82145 58.0569
rfemur -32.0406 2.09038 21.6921
rtibia 34.8915
rfoot 1.31495 -15.8812
rtoes 0.806371
lfemur 28.1882 8.83906 -20.3399
ltibia 9.85972e-014
lfoot 19.3105 0.374003
ltoes -31.0585
